<svg xmlns="http://www.w3.org/2000/svg" viewBox="0 0 72 72"><defs><style>.cls-1{fill:none;}</style></defs><g id="图层_2" data-name="图层 2"><g id="Layer_1" data-name="Layer 1"><path d="M45.27,57.75a1.33,1.33,0,0,1-.17-2.65C57.74,53.51,66.92,48.44,66.92,43c0-3.79-4.48-7.5-12-9.93a1.33,1.33,0,0,1,.83-2.53C64.55,33.43,69.58,38,69.58,43c0,7-9.7,12.88-24.15,14.7Z"/><path d="M27.6,57.85h-.15c-15-1.69-25-7.64-25-14.81,0-5.08,5.05-9.63,13.86-12.48a1.34,1.34,0,0,1,1.68.86,1.33,1.33,0,0,1-.86,1.67c-7.53,2.43-12,6.15-12,9.95,0,5.57,9.54,10.68,22.67,12.16a1.33,1.33,0,0,1-.15,2.65Z"/><path d="M25.22,60.24a1.33,1.33,0,0,1-.7-2.47l2.25-1.36-2.08-1.57a1.33,1.33,0,0,1,1.6-2.13l3.64,2.75a1.35,1.35,0,0,1,.53,1.13,1.32,1.32,0,0,1-.64,1.07L25.91,60A1.37,1.37,0,0,1,25.22,60.24Z"/><path d="M18.56,40.72V36.27a19.39,19.39,0,0,0,4,.48c1.9,0,3.52-.22,3.52-2,0-1.57-1.68-1.87-4.14-1.87H20.52v-4h1.42c2.21,0,3.92,0,3.92-1.87,0-1.4-1.4-1.62-3.05-1.62a13.14,13.14,0,0,0-3.66.56V21.72a17.32,17.32,0,0,1,4.47-.59c4.42,0,7.63,1.2,7.63,5.48a3.91,3.91,0,0,1-2.88,4v.17a4.37,4.37,0,0,1,3.38,4.5c0,4.24-3.18,5.81-8.74,5.81A21.71,21.71,0,0,1,18.56,40.72Z"/><path d="M52.31,31.11c0,7.48-3.71,9.69-9.52,9.69H35.35V21.41h7.44C48.6,21.41,52.31,23,52.31,31.11Zm-5.78,0c0-4.06-1-5.06-4.08-5.06H40.91v10h1.54C45.66,36.05,46.53,35,46.53,31.11Z"/><path d="M16.1,47.66c0-1.46.66-1.86,1.78-1.86a3.79,3.79,0,0,1,.92.11v.81a2.22,2.22,0,0,0-.79-.13c-.64,0-.92.23-.92,1.07s.28,1.06.94,1.06a2.5,2.5,0,0,0,.81-.13v.79a3.2,3.2,0,0,1-1,.14C16.76,49.52,16.1,49.12,16.1,47.66Z"/><path d="M19.6,48.56V44.4h1v3.93c0,.32.08.4.3.4a.72.72,0,0,0,.19,0v.75a2.59,2.59,0,0,1-.41,0C19.85,49.5,19.6,49.2,19.6,48.56Z"/><path d="M21.56,44.86c0-.46.1-.5.54-.5s.54,0,.54.5-.1.51-.54.51S21.56,45.31,21.56,44.86Zm.05,1h1v3.59h-1Z"/><path d="M23.35,47.66c0-1.46.66-1.86,1.77-1.86a3.88,3.88,0,0,1,.93.11v.81a2.28,2.28,0,0,0-.8-.13c-.64,0-.91.23-.91,1.07s.27,1.06.93,1.06a2.41,2.41,0,0,0,.81-.13v.79a3.2,3.2,0,0,1-1,.14C24,49.52,23.35,49.12,23.35,47.66Z"/><path d="M30.13,49.46H29l-1-1.53h-.16v1.53h-1V44.4h1v2.79H28L29,45.87h1.12L28.8,47.54Z"/><path d="M33.38,46.62v1.61c0,.41.08.51.42.51a1.27,1.27,0,0,0,.28,0v.74a3.28,3.28,0,0,1-.46,0c-.89,0-1.2-.25-1.2-1.19V46.62H32v-.75h.47V45h1v.86h.75v.75Z"/><path d="M34.54,47.66c0-1.46.65-1.86,1.76-1.86s1.76.4,1.76,1.86-.65,1.86-1.76,1.86S34.54,49.12,34.54,47.66Zm2.53,0c0-.87-.19-1.14-.77-1.14s-.77.27-.77,1.14.19,1.13.77,1.13S37.07,48.53,37.07,47.66Z"/><path d="M40.1,45.87h1.07L42,48.45h0l.83-2.58h1l-1.31,3.59H41.4Z"/><path d="M44.33,44.86c0-.46.11-.5.54-.5s.54,0,.54.5-.1.51-.54.51S44.33,45.31,44.33,44.86Zm.05,1h1v3.59h-1Z"/><path d="M49.4,47.87,47.08,48c0,.51.34.74,1,.74a2.93,2.93,0,0,0,1.19-.25v.76a3.2,3.2,0,0,1-1.38.25c-1.1,0-1.75-.4-1.75-1.86s.65-1.86,1.78-1.86,1.53.65,1.53,1.58A4.88,4.88,0,0,1,49.4,47.87Zm-.85-.63c0-.4-.09-.72-.65-.72s-.79.26-.82.83Z"/><path d="M49.83,45.87h1l.56,2.59h0l.63-2.59h1.09l.63,2.59h0l.57-2.59h1l-1,3.59H53.24L52.64,47h0L52,49.46H50.8Z"/><rect class="cls-1" width="72" height="72"/></g></g></svg>