<svg xmlns="http://www.w3.org/2000/svg" viewBox="0 0 64 64"><defs><style>.cls-1{fill:none;}</style></defs><g id="图层_2" data-name="图层 2"><g id="Layer_1" data-name="Layer 1"><path d="M15.36,38.22l15.46,10h0l.12.07h0l.13.06.05,0,.09,0,.05,0,.09,0,.06,0,.09,0h.05l.09,0h.06l.1,0h.38l.1,0h.05l.1,0h0l.09,0,.06,0,.08,0,.06,0,.09,0,0,0,.14-.06h0l.12-.07h0l15.46-10A2.83,2.83,0,0,0,50,35.84V19.3h0a2.45,2.45,0,0,0,0-.27v0s0-.06,0-.1v0l0-.12v0l0-.1v0a1.89,1.89,0,0,0-.11-.25h0a.75.75,0,0,0-.07-.12L49.49,18h0a2.91,2.91,0,0,0-.3-.31l0,0-.08-.06,0,0-.1-.07L33.55,7.53a2.86,2.86,0,0,0-3.08,0l-15.4,9.93-.11.07,0,0-.09.07,0,0a1.64,1.64,0,0,0-.29.3h0l-.16.24-.07.12h0a2.72,2.72,0,0,0-.11.25v0l0,.1v0l0,.12s0,0,0,0,0,.06,0,.1v0a2.64,2.64,0,0,0,0,.28V35.84a2.83,2.83,0,0,0,1.3,2.38Zm3.09-14.9,11.37,7.33V42.32L18.45,35ZM45.57,35,34.2,42.32V30.65l11.37-7.33ZM32,11.75,43.72,19.3,32,26.85,20.3,19.3Z"/><path d="M55.38,43.42a2.83,2.83,0,0,0-3.2.36c-3,2.63-11.07,8.75-20.17,8.75-9.53,0-17.72-6.17-21.06-9.82a2.19,2.19,0,1,0-3.28,2.91l0,.05a37.64,37.64,0,0,0,9.51,7.27,31,31,0,0,0,14.79,4,30.42,30.42,0,0,0,13.63-3.49A43.66,43.66,0,0,0,52,49.5l-.27,2.19a2.19,2.19,0,1,0,4.35.54l.75-6A2.82,2.82,0,0,0,55.38,43.42Z"/><rect class="cls-1" width="64" height="64"/></g></g></svg>