<svg xmlns="http://www.w3.org/2000/svg" viewBox="0 0 90 110"><defs><style>.cls-1,.cls-2{fill:none;}.cls-1{stroke:#000;stroke-linejoin:round;stroke-width:2px;}</style></defs><g id="图层_2" data-name="图层 2"><g id="Layer_1" data-name="Layer 1"><line class="cls-1" x1="68.37" y1="58.18" x2="73.89" y2="10.73"/><path class="cls-1" d="M44.26,99.35h.93a70.53,70.53,0,0,0,8.59-.51"/><line class="cls-1" x1="16.5" y1="10.73" x2="19.96" y2="39.49"/><ellipse class="cls-1" cx="45.19" cy="10.73" rx="28.7" ry="6.7"/><path class="cls-1" d="M5.3,44.72l7.18,57.38c0,2.14,7,3.87,15.54,3.87s15.54-1.73,15.54-3.87l7.18-57.38"/><ellipse class="cls-1" cx="28.02" cy="44.72" rx="22.72" ry="5.81"/><path class="cls-1" d="M54.81,102.1c0,2.14,5.35,3.87,12,3.87s12-1.73,12-3.87"/><path class="cls-1" d="M48.83,63.84l6,38.26c0,2.14,5.35,3.87,12,3.87s12-1.73,12-3.87l6-38.26"/><ellipse class="cls-1" cx="66.76" cy="63.84" rx="17.93" ry="5.81"/><rect class="cls-2" width="90" height="110"/></g></g></svg>