<svg xmlns="http://www.w3.org/2000/svg" viewBox="0 0 200 260"><defs><style>.cls-1,.cls-2{fill:none;}.cls-1{stroke:#000;stroke-linejoin:round;stroke-width:3px;}</style></defs><g id="图层_2" data-name="图层 2"><g id="Layer_1" data-name="Layer 1"><line class="cls-1" x1="155.04" y1="137.48" x2="168.02" y2="25.76"/><path class="cls-1" d="M98.25,234.43h2.2a165.07,165.07,0,0,0,20.23-1.19"/><line class="cls-1" x1="32.88" y1="25.76" x2="41.04" y2="93.48"/><ellipse class="cls-1" cx="100.45" cy="25.76" rx="67.57" ry="15.78"/><path class="cls-1" d="M6.52,105.79,23.42,240.9c0,5,16.38,9.12,36.6,9.12s36.59-4.08,36.59-9.12l16.9-135.11"/><ellipse class="cls-1" cx="60.02" cy="105.79" rx="53.49" ry="13.69"/><path class="cls-1" d="M123.09,240.89c0,5,12.61,9.13,28.16,9.13s28.15-4.09,28.15-9.13"/><path class="cls-1" d="M109,150.8l14.07,90.09c0,5,12.61,9.13,28.16,9.13s28.15-4.09,28.15-9.13l14.08-90.09"/><ellipse class="cls-1" cx="151.25" cy="150.8" rx="42.23" ry="13.69"/><rect class="cls-2" width="200" height="260"/></g></g></svg>