<svg xmlns="http://www.w3.org/2000/svg" viewBox="0 0 110 110"><defs><style>.cls-1{fill:none;}</style></defs><g id="图层_2" data-name="图层 2"><g id="Layer_1" data-name="Layer 1"><path d="M55,83c-12,0-24.66-2.35-24.66-6.69S43,69.6,55,69.6,79.66,72,79.66,76.3,67,83,55,83ZM55,71.1c-14.35,0-23.16,3-23.16,5.2S40.65,81.49,55,81.49s23.16-3,23.16-5.19S69.35,71.1,55,71.1Z"/><path d="M55,88.32c-11.63,0-23.66-2.28-23.66-6.08h.75c0,2.57,9.2,5.33,22.91,5.33s22.91-2.76,22.91-5.33h.75C78.66,86,66.63,88.32,55,88.32Z"/><path d="M55,99.32c-8.36,0-14.76-2.33-19-6.94-6.24-6.72-5.65-15.76-5.62-16.14l1.5.11c0,.09-.57,8.79,5.23,15,4,4.28,10,6.45,17.93,6.45s14-2.17,17.94-6.46c5.8-6.25,5.23-14.92,5.22-15l1.5-.11c0,.38.62,9.42-5.62,16.14C69.76,97,63.36,99.32,55,99.32Z"/><path d="M55.2,102.69a43.34,43.34,0,0,1-6.65-.52,2.27,2.27,0,0,1-1.89-2.23V98.08h1.5v1.86a.74.74,0,0,0,.62.74,39.08,39.08,0,0,0,12.4,0,.76.76,0,0,0,.66-.75V98.08h1.5V100a2.26,2.26,0,0,1-1.91,2.23A38.61,38.61,0,0,1,55.2,102.69Z"/><rect class="cls-1" width="110" height="110"/></g></g></svg>