<svg xmlns="http://www.w3.org/2000/svg" viewBox="0 0 110 110"><defs><style>.cls-1{fill:none;}</style></defs><g id="图层_2" data-name="图层 2"><g id="Layer_1" data-name="Layer 1"><path d="M55,89.52c-16.26,0-33.55-3.12-33.55-8.91S38.74,71.7,55,71.7s33.55,3.13,33.55,8.91S71.26,89.52,55,89.52ZM55,73.2c-18.89,0-32,3.91-32,7.41S36.11,88,55,88s32.05-3.9,32.05-7.41S73.89,73.2,55,73.2Z"/><path d="M55,84.73c-10.75,0-21.63-1.41-21.63-4.12S44.25,76.49,55,76.49s21.63,1.41,21.63,4.12S65.75,84.73,55,84.73Zm0-7.49c-12.94,0-20.88,2-20.88,3.37S42.06,84,55,84s20.88-2,20.88-3.37S67.94,77.24,55,77.24Z"/><path d="M55,93.42c-13.62,0-20.53-1.06-20.53-6.86H36c0,3.48,3,5.36,19,5.36S74,90,74,86.56h1.5C75.53,92.36,68.62,93.42,55,93.42Z"/><path d="M55.25,96.16c-2.71,0-5.48-.12-8.29-.36-1.33-.12-2.26-.87-2.26-1.81V92.67h1.5V94a1.56,1.56,0,0,0,.9.31,87.45,87.45,0,0,0,15.77,0,1.39,1.39,0,0,0,.94-.36V92.67h1.5V94c0,.94-.94,1.69-2.29,1.81C60.49,96.05,57.89,96.16,55.25,96.16Z"/><rect class="cls-1" width="110" height="110"/></g></g></svg>